<svg width="82" height="80" viewBox="0 0 82 80" fill="none" xmlns="http://www.w3.org/2000/svg">
<g filter="url(#filter0_d_1168_17)">
<rect x="5.5" y="1.5" width="71" height="69" rx="34.5" stroke="#007299" stroke-width="3" shape-rendering="crispEdges"/>
</g>
<g filter="url(#filter1_d_1168_17)">
<path d="M26.3335 28.6667L25.6264 29.3738L24.9193 28.6667L25.6264 27.9596L26.3335 28.6667ZM35.5002 49.8334C34.9479 49.8334 34.5002 49.3857 34.5002 48.8334C34.5002 48.2811 34.9479 47.8334 35.5002 47.8334L35.5002 49.8334ZM34.7931 38.5405L25.6264 29.3738L27.0406 27.9596L36.2073 37.1263L34.7931 38.5405ZM25.6264 27.9596L34.7931 18.7929L36.2073 20.2071L27.0406 29.3738L25.6264 27.9596ZM26.3335 27.6667L45.5835 27.6667L45.5835 29.6667L26.3335 29.6667L26.3335 27.6667ZM45.5835 49.8334L35.5002 49.8334L35.5002 47.8334L45.5835 47.8334L45.5835 49.8334ZM56.6668 38.75C56.6668 44.8712 51.7047 49.8334 45.5835 49.8334L45.5835 47.8334C50.6001 47.8334 54.6668 43.7666 54.6668 38.75L56.6668 38.75ZM45.5835 27.6667C51.7046 27.6667 56.6668 32.6289 56.6668 38.75L54.6668 38.75C54.6668 33.7335 50.6001 29.6667 45.5835 29.6667L45.5835 27.6667Z" fill="#007299"/>
</g>
<defs>
<filter id="filter0_d_1168_17" x="0" y="0" width="82" height="80" filterUnits="userSpaceOnUse" color-interpolation-filters="sRGB">
<feFlood flood-opacity="0" result="BackgroundImageFix"/>
<feColorMatrix in="SourceAlpha" type="matrix" values="0 0 0 0 0 0 0 0 0 0 0 0 0 0 0 0 0 0 127 0" result="hardAlpha"/>
<feOffset dy="4"/>
<feGaussianBlur stdDeviation="2"/>
<feComposite in2="hardAlpha" operator="out"/>
<feColorMatrix type="matrix" values="0 0 0 0 0 0 0 0 0 0 0 0 0 0 0 0 0 0 0.25 0"/>
<feBlend mode="normal" in2="BackgroundImageFix" result="effect1_dropShadow_1168_17"/>
<feBlend mode="normal" in="SourceGraphic" in2="effect1_dropShadow_1168_17" result="shape"/>
</filter>
<filter id="filter1_d_1168_17" x="15" y="14" width="52" height="52" filterUnits="userSpaceOnUse" color-interpolation-filters="sRGB">
<feFlood flood-opacity="0" result="BackgroundImageFix"/>
<feColorMatrix in="SourceAlpha" type="matrix" values="0 0 0 0 0 0 0 0 0 0 0 0 0 0 0 0 0 0 127 0" result="hardAlpha"/>
<feOffset dy="4"/>
<feGaussianBlur stdDeviation="2"/>
<feComposite in2="hardAlpha" operator="out"/>
<feColorMatrix type="matrix" values="0 0 0 0 0.00392157 0 0 0 0 0.45098 0 0 0 0 0.6 0 0 0 0.25 0"/>
<feBlend mode="normal" in2="BackgroundImageFix" result="effect1_dropShadow_1168_17"/>
<feBlend mode="normal" in="SourceGraphic" in2="effect1_dropShadow_1168_17" result="shape"/>
</filter>
</defs>
</svg>
