<svg width="44" height="44" viewBox="0 0 44 44" fill="none" xmlns="http://www.w3.org/2000/svg">
<g filter="url(#filter0_d_73_153)">
<path d="M7.33349 14.6667L6.62639 15.3738L5.91928 14.6667L6.62639 13.9596L7.33349 14.6667ZM16.5002 35.8334C15.9479 35.8334 15.5002 35.3857 15.5002 34.8334C15.5002 34.2811 15.9479 33.8334 16.5002 33.8334L16.5002 35.8334ZM15.7931 24.5405L6.62639 15.3738L8.0406 13.9596L17.2073 23.1263L15.7931 24.5405ZM6.62639 13.9596L15.7931 4.79293L17.2073 6.20715L8.0406 15.3738L6.62639 13.9596ZM7.33349 13.6667L26.5835 13.6667L26.5835 15.6667L7.33349 15.6667L7.33349 13.6667ZM26.5835 35.8334L16.5002 35.8334L16.5002 33.8334L26.5835 33.8334L26.5835 35.8334ZM37.6668 24.75C37.6668 30.8712 32.7047 35.8334 26.5835 35.8334L26.5835 33.8334C31.6001 33.8334 35.6668 29.7666 35.6668 24.75L37.6668 24.75ZM26.5835 13.6667C32.7046 13.6667 37.6668 18.6289 37.6668 24.75L35.6668 24.75C35.6668 19.7335 31.6001 15.6667 26.5835 15.6667L26.5835 13.6667Z" fill="#7B7C7C"/>
</g>
<defs>
<filter id="filter0_d_73_153" x="-4" y="0" width="52" height="52" filterUnits="userSpaceOnUse" color-interpolation-filters="sRGB">
<feFlood flood-opacity="0" result="BackgroundImageFix"/>
<feColorMatrix in="SourceAlpha" type="matrix" values="0 0 0 0 0 0 0 0 0 0 0 0 0 0 0 0 0 0 127 0" result="hardAlpha"/>
<feOffset dy="4"/>
<feGaussianBlur stdDeviation="2"/>
<feComposite in2="hardAlpha" operator="out"/>
<feColorMatrix type="matrix" values="0 0 0 0 0 0 0 0 0 0 0 0 0 0 0 0 0 0 0.25 0"/>
<feBlend mode="normal" in2="BackgroundImageFix" result="effect1_dropShadow_73_153"/>
<feBlend mode="normal" in="SourceGraphic" in2="effect1_dropShadow_73_153" result="shape"/>
</filter>
</defs>
</svg>
