<svg width="169" height="173" viewBox="0 0 169 173" fill="none" xmlns="http://www.w3.org/2000/svg">
<g filter="url(#filter0_dd_73_29)">
<path d="M56.3333 38.0416C56.3333 37.0988 56.3333 36.6274 56.6262 36.3345C56.9191 36.0416 57.3905 36.0416 58.3333 36.0416H90.2927C90.9001 36.0416 91.2038 36.0416 91.4469 36.1934C91.6899 36.3452 91.8232 36.6181 92.0898 37.1639L102.104 57.6666H138.833C139.776 57.6666 140.248 57.6666 140.54 57.9595C140.833 58.2524 140.833 58.7238 140.833 59.6666V106.125C140.833 107.068 140.833 107.539 140.54 107.832C140.248 108.125 139.776 108.125 138.833 108.125H58.3333C57.3905 108.125 56.9191 108.125 56.6262 107.832C56.3333 107.539 56.3333 107.068 56.3333 106.125V38.0416Z" stroke="white" stroke-width="4" stroke-linejoin="round"/>
<path d="M119.708 108.125V135.358C119.708 135.918 119.708 136.198 119.599 136.412C119.503 136.6 119.351 136.753 119.162 136.849C118.948 136.958 118.668 136.958 118.108 136.958H29.7667C29.2066 136.958 28.9266 136.958 28.7127 136.849C28.5245 136.753 28.3716 136.6 28.2757 136.412C28.1667 136.198 28.1667 135.918 28.1667 135.358V59.2666C28.1667 58.7066 28.1667 58.4265 28.2757 58.2126C28.3716 58.0245 28.5245 57.8715 28.7127 57.7756C28.9266 57.6666 29.2066 57.6666 29.7667 57.6666H56.3334" stroke="white" stroke-width="4" stroke-linejoin="round"/>
</g>
<defs>
<filter id="filter0_dd_73_29" x="-3" y="0" width="175" height="180" filterUnits="userSpaceOnUse" color-interpolation-filters="sRGB">
<feFlood flood-opacity="0" result="BackgroundImageFix"/>
<feColorMatrix in="SourceAlpha" type="matrix" values="0 0 0 0 0 0 0 0 0 0 0 0 0 0 0 0 0 0 127 0" result="hardAlpha"/>
<feMorphology radius="2" operator="dilate" in="SourceAlpha" result="effect1_dropShadow_73_29"/>
<feOffset dy="4"/>
<feGaussianBlur stdDeviation="2"/>
<feComposite in2="hardAlpha" operator="out"/>
<feColorMatrix type="matrix" values="0 0 0 0 0.0470588 0 0 0 0 0.0470588 0 0 0 0 0.0509804 0 0 0 0.05 0"/>
<feBlend mode="normal" in2="BackgroundImageFix" result="effect1_dropShadow_73_29"/>
<feColorMatrix in="SourceAlpha" type="matrix" values="0 0 0 0 0 0 0 0 0 0 0 0 0 0 0 0 0 0 127 0" result="hardAlpha"/>
<feMorphology radius="2" operator="dilate" in="SourceAlpha" result="effect2_dropShadow_73_29"/>
<feOffset dy="4"/>
<feGaussianBlur stdDeviation="2"/>
<feComposite in2="hardAlpha" operator="out"/>
<feColorMatrix type="matrix" values="0 0 0 0 0.0470588 0 0 0 0 0.0470588 0 0 0 0 0.0509804 0 0 0 0.1 0"/>
<feBlend mode="normal" in2="effect1_dropShadow_73_29" result="effect2_dropShadow_73_29"/>
<feBlend mode="normal" in="SourceGraphic" in2="effect2_dropShadow_73_29" result="shape"/>
</filter>
</defs>
</svg>
