<svg width="40px" height="40px" viewBox="0 0 40 40" fill="none" xmlns="http://www.w3.org/2000/svg">
<path d="M20 36.6668C17.9167 36.6668 15.9656 36.2712 14.1467 35.4801C12.3278 34.689 10.7444 33.6195 9.39667 32.2718C8.04889 30.924 6.97945 29.3407 6.18834 27.5218C5.39722 25.7029 5.00111 23.7512 5 21.6668C4.99889 19.5823 5.395 17.6312 6.18834 15.8134C6.98167 13.9957 8.05056 12.4123 9.395 11.0634C10.7394 9.71455 12.3228 8.6451 14.145 7.8551C15.9672 7.0651 17.9189 6.66899 20 6.66677H20.25L18.8333 5.2501C18.5 4.91677 18.34 4.52788 18.3533 4.08343C18.3667 3.63899 18.5267 3.2501 18.8333 2.91677C19.1667 2.58343 19.5628 2.4101 20.0217 2.39677C20.4806 2.38343 20.8761 2.54288 21.2083 2.8751L25.5 7.16677C25.8333 7.5001 26 7.88899 26 8.33343C26 8.77788 25.8333 9.16677 25.5 9.5001L21.2083 13.7918C20.875 14.1251 20.4794 14.2851 20.0217 14.2718C19.5639 14.2584 19.1678 14.0845 18.8333 13.7501C18.5278 13.4168 18.3678 13.0279 18.3533 12.5834C18.3389 12.139 18.4989 11.7501 18.8333 11.4168L20.25 10.0001H20C16.75 10.0001 13.9933 11.1323 11.73 13.3968C9.46667 15.6612 8.33445 18.4179 8.33334 21.6668C8.33222 24.9157 9.46445 27.6729 11.73 29.9384C13.9956 32.204 16.7522 33.3357 20 33.3334C23.2478 33.3312 26.005 32.1995 28.2717 29.9384C30.5383 27.6773 31.67 24.9201 31.6667 21.6668C31.6667 21.1945 31.8267 20.799 32.1467 20.4801C32.4667 20.1612 32.8622 20.0012 33.3333 20.0001C33.8044 19.999 34.2006 20.159 34.5217 20.4801C34.8428 20.8012 35.0022 21.1968 35 21.6668C35 23.7501 34.6044 25.7018 33.8133 27.5218C33.0222 29.3418 31.9528 30.9251 30.605 32.2718C29.2572 33.6184 27.6739 34.6879 25.855 35.4801C24.0361 36.2723 22.0844 36.6679 20 36.6668ZM15 19.1668H13.75C13.3889 19.1668 13.0906 19.0484 12.855 18.8118C12.6194 18.5751 12.5011 18.2768 12.5 17.9168C12.4989 17.5568 12.6172 17.2584 12.855 17.0218C13.0928 16.7851 13.3911 16.6668 13.75 16.6668H16.25C16.6111 16.6668 16.91 16.7851 17.1467 17.0218C17.3833 17.2584 17.5011 17.5568 17.5 17.9168V25.4168C17.5 25.7779 17.3817 26.0768 17.145 26.3134C16.9083 26.5501 16.61 26.6679 16.25 26.6668C15.89 26.6657 15.5917 26.5473 15.355 26.3118C15.1183 26.0762 15 25.7779 15 25.4168V19.1668ZM20.8333 26.6668C20.3611 26.6668 19.9656 26.5068 19.6467 26.1868C19.3278 25.8668 19.1678 25.4712 19.1667 25.0001V18.3334C19.1667 17.8612 19.3267 17.4657 19.6467 17.1468C19.9667 16.8279 20.3622 16.6679 20.8333 16.6668H24.1667C24.6389 16.6668 25.035 16.8268 25.355 17.1468C25.675 17.4668 25.8344 17.8623 25.8333 18.3334V25.0001C25.8333 25.4723 25.6733 25.8684 25.3533 26.1884C25.0333 26.5084 24.6378 26.6679 24.1667 26.6668H20.8333ZM21.6667 24.1668H23.3333V19.1668H21.6667V24.1668Z" fill="black"/>
</svg>
