<svg width="46" height="46" viewBox="0 0 46 46" fill="none" xmlns="http://www.w3.org/2000/svg">
<path d="M7.66666 23L23 7.66663L38.3333 23M11.5 20.125V36.4166C11.5 36.925 11.7019 37.4125 12.0614 37.7719C12.4208 38.1314 12.9083 38.3333 13.4167 38.3333H19.1667V32.5833C19.1667 32.075 19.3686 31.5874 19.728 31.228C20.0875 30.8686 20.575 30.6666 21.0833 30.6666H24.9167C25.425 30.6666 25.9125 30.8686 26.2719 31.228C26.6314 31.5874 26.8333 32.075 26.8333 32.5833V38.3333H32.5833C33.0917 38.3333 33.5792 38.1314 33.9386 37.7719C34.2981 37.4125 34.5 36.925 34.5 36.4166V20.125" stroke="black" stroke-width="2" stroke-linecap="round" stroke-linejoin="round"/>
</svg>
