<svg width="47" height="58" viewBox="0 0 47 58" fill="none" xmlns="http://www.w3.org/2000/svg">
<path d="M31.4976 5.91215L30.6441 5.0586V6.26571V15.572V16.072H31.1441H40.4504H41.6575L40.804 15.2185L31.4976 5.91215ZM42.0254 20.7627V20.2627H41.5254H31.1441C28.5535 20.2627 26.4534 18.1626 26.4534 15.572V5.19068V4.69068H25.9534H5.19068H4.69068V5.19068V51.9068V52.4068H5.19068H41.5254H42.0254V51.9068V20.7627ZM26.307 31.8656L25.4534 31.012V32.2191V43.6208H21.2627V32.2191V31.012L20.4092 31.8656L17.4072 34.8675L14.444 31.9042L23.3581 22.9901L32.2722 31.9042L29.3089 34.8675L26.307 31.8656ZM5.19068 0.5H32.012L46.2161 14.7041V51.9068C46.2161 54.4974 44.116 56.5975 41.5254 56.5975H5.19068C2.60009 56.5975 0.5 54.4974 0.5 51.9068V5.19068C0.5 2.60009 2.60009 0.5 5.19068 0.5Z" fill="#15B5D4" stroke="#CEF7FF"/>
</svg>
