<svg width="30" height="36" viewBox="0 0 30 36" fill="none" xmlns="http://www.w3.org/2000/svg">
<path fill-rule="evenodd" clip-rule="evenodd" d="M19.6684 4.23072V9.98546H25.4232L19.6684 4.23072ZM26.0879 13.1952H19.6684C17.8957 13.1952 16.4587 11.7582 16.4587 9.98546V3.56596H3.61967V32.4537H26.0879V13.1952ZM3.61967 0.356201H20.3332L29.2977 9.3207V32.4537C29.2977 34.2264 27.8606 35.6635 26.0879 35.6635H3.61967C1.84697 35.6635 0.409912 34.2264 0.409912 32.4537V3.56596C0.409912 1.79326 1.84697 0.356201 3.61967 0.356201ZM8.4343 26.0342V22.8245H18.0636V26.0342H8.4343ZM8.4343 19.6147V16.405H21.2733V19.6147H8.4343Z" fill="#4C4C4C"/>
</svg>
