<svg width="30" height="30" viewBox="0 0 30 30" fill="none" xmlns="http://www.w3.org/2000/svg">
<g filter="url(#filter0_d_133_95)">
<path d="M15 21C16.3135 21.0016 17.6143 20.7437 18.8278 20.2411C20.0412 19.7384 21.1434 19.0009 22.071 18.071C23.0009 17.1434 23.7384 16.0412 24.2411 14.8278C24.7437 13.6143 25.0016 12.3135 25 11C25.0016 9.68655 24.7437 8.38572 24.2411 7.17225C23.7384 5.95878 23.0009 4.85659 22.071 3.92901C21.1434 2.99909 20.0412 2.26162 18.8278 1.75897C17.6143 1.25631 16.3135 0.998388 15 1.00001C13.6866 0.998388 12.3857 1.25631 11.1723 1.75897C9.95878 2.26162 8.85659 2.99909 7.92901 3.92901C6.99909 4.85659 6.26162 5.95878 5.75897 7.17225C5.25631 8.38572 4.99839 9.68655 5.00001 11C4.99839 12.3135 5.25631 13.6143 5.75897 14.8278C6.26162 16.0412 6.99909 17.1434 7.92901 18.071C8.85659 19.0009 9.95878 19.7384 11.1723 20.2411C12.3857 20.7437 13.6866 21.0016 15 21Z" stroke="#02607E" stroke-width="2" stroke-linejoin="round"/>
<path d="M15 4.75C15.2652 4.75 15.5196 4.85536 15.7071 5.04289C15.8946 5.23043 16 5.48478 16 5.75C16 6.01522 15.8946 6.26957 15.7071 6.45711C15.5196 6.64464 15.2652 6.75 15 6.75C14.7348 6.75 14.4804 6.64464 14.2929 6.45711C14.1054 6.26957 14 6.01522 14 5.75C14 5.48478 14.1054 5.23043 14.2929 5.04289C14.4804 4.85536 14.7348 4.75 15 4.75Z" stroke="#02607E" stroke-width="0.5"/>
<path d="M15.25 16V9H14.25M13.5 16H17" stroke="#02607E" stroke-width="2" stroke-linecap="round" stroke-linejoin="round"/>
</g>
<defs>
<filter id="filter0_d_133_95" x="0" y="0" width="30" height="30" filterUnits="userSpaceOnUse" color-interpolation-filters="sRGB">
<feFlood flood-opacity="0" result="BackgroundImageFix"/>
<feColorMatrix in="SourceAlpha" type="matrix" values="0 0 0 0 0 0 0 0 0 0 0 0 0 0 0 0 0 0 127 0" result="hardAlpha"/>
<feOffset dy="4"/>
<feGaussianBlur stdDeviation="2"/>
<feComposite in2="hardAlpha" operator="out"/>
<feColorMatrix type="matrix" values="0 0 0 0 0 0 0 0 0 0 0 0 0 0 0 0 0 0 0.25 0"/>
<feBlend mode="normal" in2="BackgroundImageFix" result="effect1_dropShadow_133_95"/>
<feBlend mode="normal" in="SourceGraphic" in2="effect1_dropShadow_133_95" result="shape"/>
</filter>
</defs>
</svg>
