<svg width="44" height="44" viewBox="0 0 44 44" fill="none" xmlns="http://www.w3.org/2000/svg">
<path fill-rule="evenodd" clip-rule="evenodd" d="M8.50458 10.3382C7.33301 11.5098 7.33301 13.3954 7.33301 17.1666V23.8333V31.1666V36.0857C7.33301 36.9767 8.41015 37.4228 9.04011 36.7929L14.5199 31.3131C14.5922 31.2408 14.6283 31.2047 14.6742 31.1857C14.7202 31.1666 14.7713 31.1666 14.8734 31.1666L28.6663 31.1666C32.4376 31.1666 34.3232 31.1666 35.4948 29.9951C36.6663 28.8235 36.6663 26.9379 36.6663 23.1666V17.1666C36.6663 13.3954 36.6663 11.5098 35.4948 10.3382C34.3232 9.16663 32.4376 9.16663 28.6663 9.16663H15.333C11.5618 9.16663 9.67615 9.16663 8.50458 10.3382Z" fill="#7E869E" fill-opacity="0.25"/>
<path d="M15.583 17.4166H28.4163" stroke="grey" stroke-linecap="round" stroke-linejoin="round"/>
<path d="M15.583 22.9166H24.7497" stroke="grey" stroke-linecap="round" stroke-linejoin="round"/>
</svg>
