<svg width="63" height="63" viewBox="0 0 63 63" fill="none" xmlns="http://www.w3.org/2000/svg">
<path d="M10.5001 21L8.64421 22.8559L6.78833 21L8.64421 19.1442L10.5001 21ZM23.6251 52.5C22.9289 52.5 22.2612 52.2235 21.7689 51.7312C21.2766 51.2389 21.0001 50.5712 21.0001 49.875C21.0001 49.1788 21.2766 48.5112 21.7689 48.0189C22.2612 47.5266 22.9289 47.25 23.6251 47.25V52.5ZM21.7692 35.9809L8.64421 22.8559L12.356 19.1442L25.481 32.2692L21.7692 35.9809ZM8.64421 19.1442L21.7692 6.01917L25.481 9.73092L12.356 22.8559L8.64421 19.1442ZM10.5001 18.375H38.0626V23.625H10.5001V18.375ZM38.0626 52.5H23.6251V47.25H38.0626V52.5ZM55.1251 35.4375C55.1251 39.9628 53.3274 44.3027 50.1276 47.5025C46.9277 50.7024 42.5878 52.5 38.0626 52.5V47.25C39.6138 47.25 41.1499 46.9445 42.583 46.3509C44.0162 45.7572 45.3184 44.8871 46.4153 43.7902C47.5122 42.6933 48.3823 41.3911 48.9759 39.958C49.5695 38.5248 49.8751 36.9888 49.8751 35.4375H55.1251ZM38.0626 18.375C42.5878 18.375 46.9277 20.1727 50.1276 23.3725C53.3274 26.5724 55.1251 30.9123 55.1251 35.4375H49.8751C49.8751 33.8863 49.5695 32.3502 48.9759 30.9171C48.3823 29.4839 47.5122 28.1817 46.4153 27.0848C45.3184 25.9879 44.0162 25.1178 42.583 24.5242C41.1499 23.9306 39.6138 23.625 38.0626 23.625V18.375Z" fill="#02607E"/>
</svg>
