<svg width="26" height="31" viewBox="0 0 26 31" fill="none" xmlns="http://www.w3.org/2000/svg">
<path fill-rule="evenodd" clip-rule="evenodd" d="M8.39376 3.37746V8.39394H3.37728L8.39376 3.37746ZM2.7978 11.1919H8.39376C9.93904 11.1919 11.1917 9.93922 11.1917 8.39394V2.79798H22.3837V27.9798H2.7978V11.1919ZM22.3837 0H7.81428L-0.000179291 7.81446V27.9798C-0.000179291 29.5251 1.25252 30.7778 2.7978 30.7778H22.3837C23.9289 30.7778 25.1816 29.5251 25.1816 27.9798V2.79798C25.1816 1.2527 23.9289 0 22.3837 0ZM13.9897 19.0064V12.5909H11.1917V19.0064L9.383 17.1976L7.40453 19.1761L12.5907 24.3623L17.7769 19.1761L15.7985 17.1976L13.9897 19.0064Z" fill="grey"/>
</svg>
