<svg width="17" height="12" viewBox="0 0 29 24" fill="none" xmlns="http://www.w3.org/2000/svg">
<path fill-rule="evenodd" clip-rule="evenodd" d="M26.2514 6.56284C27.7012 6.56284 28.8765 7.73815 28.8765 9.18797L28.8452 9.47271L26.2461 21.1689C26.1595 22.5405 25.0197 23.6262 23.6262 23.6262H2.62514C1.17531 23.6262 0 22.4509 0 21.0011V2.62514C0 1.17531 1.17531 0 2.62514 0H10.5005C11.9706 0 12.9064 0.624062 13.8462 1.80984C13.909 1.88896 14.189 2.25221 14.2577 2.33745C14.4641 2.5933 14.5062 2.62478 14.4406 2.62514H23.6262C25.076 2.62514 26.2514 3.80045 26.2514 5.25027V6.56284ZM23.6262 6.56284V5.25027L14.4312 5.25025C13.4886 5.2452 12.8746 4.80388 12.2145 3.98567C12.1234 3.87274 11.8339 3.49721 11.789 3.44045C11.2973 2.82014 11.0049 2.62514 10.5005 2.62514H2.62514V9.04551L2.66337 8.87349C3.03229 7.37854 3.71902 6.56284 5.25027 6.56284H23.6262ZM2.65715 21.0011H23.6262L23.6575 20.7163L26.2193 9.18797H5.29792C5.27742 9.25301 5.25016 9.34718 5.21901 9.47271L2.65715 21.0011Z" fill="white"/>
</svg>
