<svg xmlns="http://www.w3.org/2000/svg" xmlns:xlink="http://www.w3.org/1999/xlink" version="1.1" x="0px" y="0px" viewBox="0 0 52 65" enable-background="new 0 0 52 52" xml:space="preserve">
  <g fill="#15B5D4">
    <path d="M26,2.0002747c-5.5100098,0-10,4.4900513-10,10v14c0,5.1724854,3.9570313,9.4451294,9,9.9492798v12.0501709h-9v2h19v-2h-8   V35.9495544c5.0429688-0.5041504,9-4.7767944,9-9.9492798v-14C36,6.4903259,31.5100098,2.0002747,26,2.0002747z"/>
    <path d="M38.9541016,8.4049988C40.6787109,10.6716003,41.75,14.7956238,41.75,19.1667175   c0,4.2080078-0.9648438,8.1201172-2.5810547,10.4658203l1.6464844,1.1347656   C42.652832,28.1003113,43.75,23.7643738,43.75,19.1667175c0-4.859375-1.1977539-9.3359375-3.2041016-11.9726563   L38.9541016,8.4049988z"/>
    <path d="M46.0458984,4.3942566l-1.5917969,1.2109375C46.6411133,8.4811707,48,13.6930847,48,19.2087097   c0,5.3076172-1.2226563,10.2509766-3.2705078,13.2236328l1.6464844,1.1347656C48.6455078,30.2741394,50,24.9059753,50,19.2087097   C50,13.1882019,48.5219727,7.650116,46.0458984,4.3942566z"/>
    <path d="M11.4541016,7.1940613C9.4477539,9.83078,8.25,14.3073425,8.25,19.1667175   c0,4.5976563,1.097168,8.9335938,2.9345703,11.6005859l1.6464844-1.1347656   C11.2148438,27.2868347,10.25,23.3747253,10.25,19.1667175c0-4.3710938,1.0712891-8.4951172,2.7958984-10.7617188   L11.4541016,7.1940613z"/>
    <path d="M5.9541016,4.3942566C3.4780273,7.650116,2,13.1882019,2,19.2087097   c0,5.6972656,1.3544922,11.0654297,3.6240234,14.3583984l1.6464844-1.1347656C5.2226563,29.4596863,4,24.5163269,4,19.2087097   c0-5.515625,1.3588867-10.7275391,3.5458984-13.6035156L5.9541016,4.3942566z"/>
  </g>
</svg>
