<svg width="74" height="72" viewBox="0 0 74 72" fill="none" xmlns="http://www.w3.org/2000/svg">
<rect x="1.5" y="1.5" width="71" height="69" rx="34.5" fill="white" stroke="#007299" stroke-width="3"/>
<path fill-rule="evenodd" clip-rule="evenodd" d="M23.5046 24.3382C22.333 25.5098 22.333 27.3954 22.333 31.1666V37.8333V45.1666V50.0857C22.333 50.9767 23.4101 51.4228 24.0401 50.7929L29.5199 45.3131C29.5922 45.2408 29.6283 45.2047 29.6742 45.1857C29.7202 45.1666 29.7713 45.1666 29.8734 45.1666L43.6663 45.1666C47.4376 45.1666 49.3232 45.1666 50.4948 43.9951C51.6663 42.8235 51.6663 40.9379 51.6663 37.1666V31.1666C51.6663 27.3954 51.6663 25.5098 50.4948 24.3382C49.3232 23.1666 47.4376 23.1666 43.6663 23.1666H30.333C26.5618 23.1666 24.6762 23.1666 23.5046 24.3382Z" fill="#7E869E" fill-opacity="0.25"/>
<path d="M30.583 31.4166H43.4163" stroke="#1E1E1E" stroke-linecap="round" stroke-linejoin="round"/>
<path d="M30.583 36.9166H39.7497" stroke="#1E1E1E" stroke-linecap="round" stroke-linejoin="round"/>
</svg>
