<svg width="76" height="76" viewBox="0 0 76 76" fill="none" xmlns="http://www.w3.org/2000/svg">
<rect x="28" y="21" width="20" height="32.5" rx="4" fill="#7B7C7C"/>
<path d="M22 43.5C22 47.7435 23.6857 51.8131 26.6863 54.8137C29.6869 57.8143 33.7565 59.5 38 59.5C42.2435 59.5 46.3131 57.8143 49.3137 54.8137C52.3143 51.8131 54 47.7435 54 43.5" stroke="#7B7C7C" stroke-width="2" stroke-linecap="round" stroke-linejoin="round"/>
<path d="M38 68.5V63.5" stroke="#7B7C7C" stroke-width="2" stroke-linecap="round" stroke-linejoin="round"/>
<path d="M38 1.5C58.1584 1.5 74.5 17.8416 74.5 38C74.5 58.1584 58.1584 74.5 38 74.5C17.8416 74.5 1.5 58.1584 1.5 38C1.5 17.8416 17.8416 1.5 38 1.5Z" fill="#D9D9D9" fill-opacity="0.02" stroke="#7B7C7C" stroke-width="3"/>
</svg>
