<svg width="40px" height="40px" viewBox="0 0 40 40" fill="none" xmlns="http://www.w3.org/2000/svg">
<path d="M15 19.1665H13.75C13.3889 19.1665 13.0906 19.0481 12.855 18.8115C12.6194 18.5748 12.5011 18.2765 12.5 17.9165C12.4989 17.5565 12.6172 17.2581 12.855 17.0215C13.0928 16.7848 13.3911 16.6665 13.75 16.6665H16.25C16.6111 16.6665 16.91 16.7848 17.1467 17.0215C17.3833 17.2581 17.5011 17.5565 17.5 17.9165V25.4165C17.5 25.7776 17.3817 26.0765 17.145 26.3131C16.9083 26.5498 16.61 26.6676 16.25 26.6665C15.89 26.6654 15.5917 26.547 15.355 26.3115C15.1183 26.0759 15 25.7776 15 25.4165V19.1665ZM20.8333 26.6665C20.3611 26.6665 19.9656 26.5065 19.6467 26.1865C19.3278 25.8665 19.1678 25.4709 19.1667 24.9998V18.3331C19.1667 17.8609 19.3267 17.4654 19.6467 17.1465C19.9667 16.8276 20.3622 16.6676 20.8333 16.6665H24.1667C24.6389 16.6665 25.035 16.8265 25.355 17.1465C25.675 17.4665 25.8344 17.862 25.8333 18.3331V24.9998C25.8333 25.472 25.6733 25.8681 25.3533 26.1881C25.0333 26.5081 24.6378 26.6676 24.1667 26.6665H20.8333ZM21.6667 24.1665H23.3333V19.1665H21.6667V24.1665ZM20 36.6665C17.9167 36.6665 15.9656 36.2709 14.1467 35.4798C12.3278 34.6887 10.7444 33.6193 9.39667 32.2715C8.04889 30.9237 6.97944 29.3404 6.18833 27.5215C5.39722 25.7026 5.00111 23.7509 5 21.6665C5 21.1943 5.16 20.7987 5.48 20.4798C5.8 20.1609 6.19556 20.0009 6.66667 19.9998C7.13778 19.9987 7.53389 20.1587 7.855 20.4798C8.17611 20.8009 8.33556 21.1965 8.33333 21.6665C8.33333 24.9165 9.46556 27.6737 11.73 29.9381C13.9944 32.2026 16.7511 33.3343 20 33.3331C23.2489 33.332 26.0061 32.2004 28.2717 29.9381C30.5372 27.6759 31.6689 24.9187 31.6667 21.6665C31.6644 18.4143 30.5328 15.6576 28.2717 13.3965C26.0106 11.1354 23.2533 10.0031 20 9.99981H19.75L21.1667 11.4165C21.5 11.7498 21.66 12.1387 21.6467 12.5831C21.6333 13.0276 21.4733 13.4165 21.1667 13.7498C20.8333 14.0831 20.4378 14.257 19.98 14.2715C19.5222 14.2859 19.1261 14.1259 18.7917 13.7915L14.5 9.49981C14.1667 9.16648 14 8.77759 14 8.33315C14 7.8887 14.1667 7.49981 14.5 7.16648L18.7917 2.87481C19.125 2.54148 19.5211 2.38148 19.98 2.39481C20.4389 2.40815 20.8344 2.58203 21.1667 2.91648C21.4722 3.24981 21.6322 3.6387 21.6467 4.08315C21.6611 4.52759 21.5011 4.91648 21.1667 5.24981L19.75 6.66648H20C22.0833 6.66648 24.035 7.06259 25.855 7.85481C27.675 8.64703 29.2583 9.71648 30.605 11.0631C31.9517 12.4098 33.0211 13.9931 33.8133 15.8131C34.6056 17.6331 35.0011 19.5843 35 21.6665C34.9989 23.7487 34.6033 25.7004 33.8133 27.5215C33.0233 29.3426 31.9539 30.9259 30.605 32.2715C29.2561 33.617 27.6728 34.6865 25.855 35.4798C24.0372 36.2731 22.0856 36.6687 20 36.6665Z" fill="black"/>
</svg>
