<svg width="60" height="60" viewBox="0 0 60 60" fill="none" xmlns="http://www.w3.org/2000/svg">
<path d="M27.0625 55C25.9375 55 24.9692 54.625 24.1575 53.875C23.3458 53.125 22.8558 52.2083 22.6875 51.125L22.125 47C21.5833 46.7917 21.0733 46.5417 20.595 46.25C20.1167 45.9583 19.6475 45.6458 19.1875 45.3125L15.3125 46.9375C14.2708 47.3958 13.2292 47.4375 12.1875 47.0625C11.1458 46.6875 10.3333 46.0208 9.75001 45.0625L6.81251 39.9375C6.22918 38.9792 6.06251 37.9583 6.31251 36.875C6.56251 35.7917 7.12501 34.8958 8.00001 34.1875L11.3125 31.6875C11.2708 31.3958 11.25 31.1142 11.25 30.8425V29.155C11.25 28.885 11.2708 28.6042 11.3125 28.3125L8.00001 25.8125C7.12501 25.1042 6.56251 24.2083 6.31251 23.125C6.06251 22.0417 6.22918 21.0208 6.81251 20.0625L9.75001 14.9375C10.3333 13.9792 11.1458 13.3125 12.1875 12.9375C13.2292 12.5625 14.2708 12.6042 15.3125 13.0625L19.1875 14.6875C19.6458 14.3542 20.125 14.0417 20.625 13.75C21.125 13.4583 21.625 13.2083 22.125 13L22.6875 8.875C22.8542 7.79167 23.3442 6.875 24.1575 6.125C24.9708 5.375 25.9392 5 27.0625 5H32.9375C34.0625 5 35.0317 5.375 35.845 6.125C36.6583 6.875 37.1475 7.79167 37.3125 8.875L37.875 13C38.4167 13.2083 38.9275 13.4583 39.4075 13.75C39.8875 14.0417 40.3558 14.3542 40.8125 14.6875L44.6875 13.0625C45.7292 12.6042 46.7708 12.5625 47.8125 12.9375C48.8542 13.3125 49.6667 13.9792 50.25 14.9375L53.1875 20.0625C53.7708 21.0208 53.9375 22.0417 53.6875 23.125C53.4375 24.2083 52.875 25.1042 52 25.8125L48.6875 28.3125C48.7292 28.6042 48.75 28.8858 48.75 29.1575V30.8425C48.75 31.1142 48.7083 31.3958 48.625 31.6875L51.9375 34.1875C52.8125 34.8958 53.375 35.7917 53.625 36.875C53.875 37.9583 53.7083 38.9792 53.125 39.9375L50.125 45.0625C49.5417 46.0208 48.7292 46.6875 47.6875 47.0625C46.6458 47.4375 45.6042 47.3958 44.5625 46.9375L40.8125 45.3125C40.3542 45.6458 39.875 45.9583 39.375 46.25C38.875 46.5417 38.375 46.7917 37.875 47L37.3125 51.125C37.1458 52.2083 36.6567 53.125 35.845 53.875C35.0333 54.625 34.0642 55 32.9375 55H27.0625ZM27.5 50H32.4375L33.3125 43.375C34.6042 43.0417 35.8025 42.5525 36.9075 41.9075C38.0125 41.2625 39.0225 40.4808 39.9375 39.5625L46.125 42.125L48.5625 37.875L43.1875 33.8125C43.3958 33.2292 43.5417 32.615 43.625 31.97C43.7083 31.325 43.75 30.6683 43.75 30C43.75 29.3317 43.7083 28.6758 43.625 28.0325C43.5417 27.3892 43.3958 26.7742 43.1875 26.1875L48.5625 22.125L46.125 17.875L39.9375 20.5C39.0208 19.5417 38.0108 18.74 36.9075 18.095C35.8042 17.45 34.6058 16.96 33.3125 16.625L32.5 10H27.5625L26.6875 16.625C25.3958 16.9583 24.1983 17.4483 23.095 18.095C21.9917 18.7417 20.9808 19.5225 20.0625 20.4375L13.875 17.875L11.4375 22.125L16.8125 26.125C16.6042 26.75 16.4583 27.375 16.375 28C16.2917 28.625 16.25 29.2917 16.25 30C16.25 30.6667 16.2917 31.3125 16.375 31.9375C16.4583 32.5625 16.6042 33.1875 16.8125 33.8125L11.4375 37.875L13.875 42.125L20.0625 39.5C20.9792 40.4583 21.99 41.2608 23.095 41.9075C24.2 42.5542 25.3975 43.0433 26.6875 43.375L27.5 50ZM30.125 38.75C32.5417 38.75 34.6042 37.8958 36.3125 36.1875C38.0208 34.4792 38.875 32.4167 38.875 30C38.875 27.5833 38.0208 25.5208 36.3125 23.8125C34.6042 22.1042 32.5417 21.25 30.125 21.25C27.6667 21.25 25.5942 22.1042 23.9075 23.8125C22.2208 25.5208 21.3767 27.5833 21.375 30C21.3733 32.4167 22.2175 34.4792 23.9075 36.1875C25.5975 37.8958 27.67 38.75 30.125 38.75Z" fill="#017399"/>
</svg>
